<?xml version="1.0" encoding="UTF-8" standalone="no"?>
<!DOCTYPE svg PUBLIC "-//W3C//DTD SVG 1.1//EN" "http://www.w3.org/Graphics/SVG/1.1/DTD/svg11.dtd">
<!-- 由 Microsoft Visio, SVG Export 生成 毕设框图.svg Page-1 -->
<svg xmlns="http://www.w3.org/2000/svg" xmlns:xlink="http://www.w3.org/1999/xlink" xmlns:ev="http://www.w3.org/2001/xml-events"
		xmlns:v="http://schemas.microsoft.com/visio/2003/SVGExtensions/" width="30.8265in" height="24.5071in"
		viewBox="0 0 2219.51 1764.51" xml:space="preserve" color-interpolation-filters="sRGB" class="st46">
	<v:documentProperties v:langID="2052" v:metric="true" v:viewMarkup="false">
		<v:userDefs>
			<v:ud v:nameU="msvNoAutoConnect" v:val="VT0(1):26"/>
		</v:userDefs>
	</v:documentProperties>

	<style type="text/css">
	<![CDATA[
		.st1 {fill:#ffffff;stroke:#000000;stroke-linecap:round;stroke-linejoin:round;stroke-width:3}
		.st2 {fill:#000000;font-family:宋体;font-size:2.50001em}
		.st3 {fill:none;stroke:#000000;stroke-linecap:round;stroke-linejoin:round;stroke-width:3}
		.st4 {marker-end:url(#mrkr1-29);stroke:#7030a0;stroke-linecap:round;stroke-linejoin:round;stroke-width:6}
		.st5 {fill:#7030a0;fill-opacity:1;stroke:#7030a0;stroke-opacity:1;stroke-width:0.70422535211268}
		.st6 {fill:#ffffff;stroke:none;stroke-linecap:butt;stroke-width:7.2}
		.st7 {marker-start:url(#mrkr1-37);stroke:#7030a0;stroke-linecap:round;stroke-linejoin:round;stroke-width:6}
		.st8 {marker-end:url(#mrkr1-73);stroke:#7030a0;stroke-linecap:round;stroke-linejoin:round;stroke-width:4}
		.st9 {fill:#7030a0;fill-opacity:1;stroke:#7030a0;stroke-opacity:1;stroke-width:0.61349693251534}
		.st10 {marker-start:url(#mrkr1-81);stroke:#7030a0;stroke-linecap:round;stroke-linejoin:round;stroke-width:4}
		.st11 {marker-end:url(#mrkr1-92);marker-start:url(#mrkr1-90);stroke:#ee0000;stroke-linecap:round;stroke-linejoin:round;stroke-width:6}
		.st12 {fill:#ee0000;fill-opacity:1;stroke:#ee0000;stroke-opacity:1;stroke-width:0.70422535211268}
		.st13 {marker-end:url(#mrkr1-108);marker-start:url(#mrkr1-106);stroke:#ee0000;stroke-linecap:round;stroke-linejoin:round;stroke-width:4.5}
		.st14 {fill:#ee0000;fill-opacity:1;stroke:#ee0000;stroke-opacity:1;stroke-width:0.64102564102564}
		.st15 {stroke:#ee0000;stroke-linecap:round;stroke-linejoin:round;stroke-width:6}
		.st16 {marker-start:url(#mrkr1-106);stroke:#ee0000;stroke-linecap:round;stroke-linejoin:round;stroke-width:4.5}
		.st17 {font-size:1em}
		.st18 {marker-end:url(#mrkr1-138);stroke:#00b050;stroke-linecap:round;stroke-linejoin:round;stroke-width:4}
		.st19 {fill:#00b050;fill-opacity:1;stroke:#00b050;stroke-opacity:1;stroke-width:0.61349693251534}
		.st20 {marker-end:url(#mrkr2-153);stroke:#000000;stroke-linecap:round;stroke-linejoin:round;stroke-width:6}
		.st21 {fill:#000000;fill-opacity:1;stroke:#000000;stroke-opacity:1;stroke-width:0.70422535211268}
		.st22 {fill:#000000;font-family:宋体;font-size:1.5em}
		.st23 {marker-end:url(#mrkr3-182);stroke:#000000;stroke-dasharray:28,20;stroke-linecap:round;stroke-linejoin:round;stroke-width:4}
		.st24 {fill:#000000;fill-opacity:1;stroke:#000000;stroke-opacity:1;stroke-width:0.61349693251534}
		.st25 {marker-end:url(#mrkr1-203);marker-start:url(#mrkr1-201);stroke:#000000;stroke-linecap:round;stroke-linejoin:round;stroke-width:4}
		.st26 {marker-end:url(#mrkr1-203);stroke:#000000;stroke-linecap:round;stroke-linejoin:round;stroke-width:4}
		.st27 {marker-end:url(#mrkr1-138);stroke:#00b050;stroke-dasharray:28,20;stroke-linecap:round;stroke-linejoin:round;stroke-width:4}
		.st28 {marker-start:url(#mrkr1-90);stroke:#ee0000;stroke-linecap:round;stroke-linejoin:round;stroke-width:6}
		.st29 {marker-end:url(#mrkr1-257);stroke:#ee0000;stroke-linecap:round;stroke-linejoin:round;stroke-width:4}
		.st30 {fill:#ee0000;fill-opacity:1;stroke:#ee0000;stroke-opacity:1;stroke-width:0.61349693251534}
		.st31 {stroke:#ee0000;stroke-linecap:round;stroke-linejoin:round;stroke-width:10}
		.st32 {marker-end:url(#mrkr1-268);stroke:#ee0000;stroke-dasharray:21,15;stroke-linecap:round;stroke-linejoin:round;stroke-width:3}
		.st33 {fill:#ee0000;fill-opacity:1;stroke:#ee0000;stroke-opacity:1;stroke-width:0.54347826086957}
		.st34 {fill:none;stroke:none;stroke-linecap:round;stroke-linejoin:round;stroke-width:0.75}
		.st35 {marker-end:url(#mrkr1-309);stroke:#7030a0;stroke-linecap:round;stroke-linejoin:round;stroke-width:2}
		.st36 {fill:#7030a0;fill-opacity:1;stroke:#7030a0;stroke-opacity:1;stroke-width:0.44247787610619}
		.st37 {fill:#000000;font-family:宋体;font-size:1.00001em}
		.st38 {marker-end:url(#mrkr1-319);stroke:#002060;stroke-linecap:round;stroke-linejoin:round;stroke-width:2}
		.st39 {fill:#002060;fill-opacity:1;stroke:#002060;stroke-opacity:1;stroke-width:0.44247787610619}
		.st40 {marker-end:url(#mrkr1-329);stroke:#00b050;stroke-linecap:round;stroke-linejoin:round;stroke-width:2}
		.st41 {fill:#00b050;fill-opacity:1;stroke:#00b050;stroke-opacity:1;stroke-width:0.44247787610619}
		.st42 {marker-end:url(#mrkr1-329);stroke:#00b050;stroke-dasharray:30,18;stroke-linecap:round;stroke-linejoin:round;stroke-width:2}
		.st43 {marker-end:url(#mrkr1-319);stroke:#002060;stroke-dasharray:30,18;stroke-linecap:round;stroke-linejoin:round;stroke-width:2}
		.st44 {marker-end:url(#mrkr1-357);stroke:#ee0000;stroke-linecap:round;stroke-linejoin:round;stroke-width:2}
		.st45 {fill:#ee0000;fill-opacity:1;stroke:#ee0000;stroke-opacity:1;stroke-width:0.44247787610619}
		.st46 {fill:none;fill-rule:evenodd;font-size:12px;overflow:visible;stroke-linecap:square;stroke-miterlimit:3}
	]]>
	</style>

	<defs id="Markers">
		<g id="lend1">
			<path d="M 1 -1 L 0 0 L 1 1 " style="stroke-linecap:round;stroke-linejoin:round;fill:none"/>
		</g>
		<marker id="mrkr1-29" class="st5" v:arrowType="1" v:arrowSize="2" orient="auto" markerUnits="strokeWidth"
				overflow="visible">
			<use xlink:href="#lend1" transform="scale(-1.42,-1.42) "/>
		</marker>
		<marker id="mrkr1-37" class="st5" v:arrowType="1" v:arrowSize="2" orient="auto" markerUnits="strokeWidth"
				overflow="visible">
			<use xlink:href="#lend1" transform="scale(1.42) "/>
		</marker>
		<marker id="mrkr1-73" class="st9" v:arrowType="1" v:arrowSize="2" orient="auto" markerUnits="strokeWidth"
				overflow="visible">
			<use xlink:href="#lend1" transform="scale(-1.63,-1.63) "/>
		</marker>
		<marker id="mrkr1-81" class="st9" v:arrowType="1" v:arrowSize="2" orient="auto" markerUnits="strokeWidth"
				overflow="visible">
			<use xlink:href="#lend1" transform="scale(1.63) "/>
		</marker>
		<marker id="mrkr1-90" class="st12" v:arrowType="1" v:arrowSize="2" orient="auto" markerUnits="strokeWidth"
				overflow="visible">
			<use xlink:href="#lend1" transform="scale(1.42) "/>
		</marker>
		<marker id="mrkr1-92" class="st12" v:arrowType="1" v:arrowSize="2" orient="auto" markerUnits="strokeWidth"
				overflow="visible">
			<use xlink:href="#lend1" transform="scale(-1.42,-1.42) "/>
		</marker>
		<marker id="mrkr1-106" class="st14" v:arrowType="1" v:arrowSize="2" orient="auto" markerUnits="strokeWidth"
				overflow="visible">
			<use xlink:href="#lend1" transform="scale(1.56) "/>
		</marker>
		<marker id="mrkr1-108" class="st14" v:arrowType="1" v:arrowSize="2" orient="auto" markerUnits="strokeWidth"
				overflow="visible">
			<use xlink:href="#lend1" transform="scale(-1.56,-1.56) "/>
		</marker>
		<marker id="mrkr1-138" class="st19" v:arrowType="1" v:arrowSize="2" orient="auto" markerUnits="strokeWidth"
				overflow="visible">
			<use xlink:href="#lend1" transform="scale(-1.63,-1.63) "/>
		</marker>
		<g id="lend2">
			<path d="M 1 1 L 0 0 L 1 -1 L 1 1 " style="stroke:none"/>
		</g>
		<marker id="mrkr2-153" class="st21" v:arrowType="2" v:arrowSize="2" v:setback="1.42" refX="-1.42" orient="auto"
				markerUnits="strokeWidth" overflow="visible">
			<use xlink:href="#lend2" transform="scale(-1.42,-1.42) "/>
		</marker>
		<g id="lend3">
			<path d="M 2 1 L 0 0 L 2 -1 " style="stroke-linecap:round;stroke-linejoin:round;fill:none"/>
		</g>
		<marker id="mrkr3-182" class="st24" v:arrowType="3" v:arrowSize="2" orient="auto" markerUnits="strokeWidth"
				overflow="visible">
			<use xlink:href="#lend3" transform="scale(-1.63,-1.63) "/>
		</marker>
		<marker id="mrkr1-201" class="st24" v:arrowType="1" v:arrowSize="2" orient="auto" markerUnits="strokeWidth"
				overflow="visible">
			<use xlink:href="#lend1" transform="scale(1.63) "/>
		</marker>
		<marker id="mrkr1-203" class="st24" v:arrowType="1" v:arrowSize="2" orient="auto" markerUnits="strokeWidth"
				overflow="visible">
			<use xlink:href="#lend1" transform="scale(-1.63,-1.63) "/>
		</marker>
		<marker id="mrkr1-257" class="st30" v:arrowType="1" v:arrowSize="2" orient="auto" markerUnits="strokeWidth"
				overflow="visible">
			<use xlink:href="#lend1" transform="scale(-1.63,-1.63) "/>
		</marker>
		<marker id="mrkr1-268" class="st33" v:arrowType="1" v:arrowSize="2" orient="auto" markerUnits="strokeWidth"
				overflow="visible">
			<use xlink:href="#lend1" transform="scale(-1.84,-1.84) "/>
		</marker>
		<marker id="mrkr1-309" class="st36" v:arrowType="1" v:arrowSize="2" orient="auto" markerUnits="strokeWidth"
				overflow="visible">
			<use xlink:href="#lend1" transform="scale(-2.26,-2.26) "/>
		</marker>
		<marker id="mrkr1-319" class="st39" v:arrowType="1" v:arrowSize="2" orient="auto" markerUnits="strokeWidth"
				overflow="visible">
			<use xlink:href="#lend1" transform="scale(-2.26,-2.26) "/>
		</marker>
		<marker id="mrkr1-329" class="st41" v:arrowType="1" v:arrowSize="2" orient="auto" markerUnits="strokeWidth"
				overflow="visible">
			<use xlink:href="#lend1" transform="scale(-2.26,-2.26) "/>
		</marker>
		<marker id="mrkr1-357" class="st45" v:arrowType="1" v:arrowSize="2" orient="auto" markerUnits="strokeWidth"
				overflow="visible">
			<use xlink:href="#lend1" transform="scale(-2.26,-2.26) "/>
		</marker>
	</defs>
	<g v:mID="0" v:index="1" v:groupContext="foregroundPage">
		<title>页-1</title>
		<v:pageProperties v:drawingScale="0.0393701" v:pageScale="0.0393701" v:drawingUnits="24" v:shadowOffsetX="8.50394"
				v:shadowOffsetY="-8.50394"/>
		<v:layer v:name="启动和通知" v:index="0"/>
		<v:layer v:name="安全" v:index="1"/>
		<v:layer v:name="计算机" v:index="2"/>
		<v:layer v:name="连接线" v:index="3"/>
		<g id="shape2-1" v:mID="2" v:groupContext="shape" transform="translate(378.748,-1044.92)">
			<title>工作表.2</title>
			<desc>if_stage</desc>
			<v:textBlock v:margins="rect(4,4,4,4)" v:tabSpace="42.5197"/>
			<v:textRect cx="113.386" cy="1591.6" width="226.78" height="345.827"/>
			<rect x="0" y="1418.68" width="226.772" height="345.827" class="st1"/>
			<text x="53.39" y="1600.6" class="st2" v:langID="2052"><v:paragraph v:horizAlign="1"/><v:tabList/>if_stage</text>		</g>
		<g id="shape3-4" v:mID="3" v:groupContext="shape" transform="translate(789.772,-1044.92)">
			<title>工作表.3</title>
			<desc>id_stage</desc>
			<v:textBlock v:margins="rect(4,4,4,4)" v:tabSpace="42.5197"/>
			<v:textRect cx="113.386" cy="1591.6" width="226.78" height="345.827"/>
			<rect x="0" y="1418.68" width="226.772" height="345.827" class="st1"/>
			<text x="53.39" y="1600.6" class="st2" v:langID="2052"><v:paragraph v:horizAlign="1"/><v:tabList/>id_stage</text>		</g>
		<g id="shape4-7" v:mID="4" v:groupContext="shape" transform="translate(1200.8,-1044.92)">
			<title>工作表.4</title>
			<desc>exe_stage</desc>
			<v:textBlock v:margins="rect(4,4,4,4)" v:tabSpace="42.5197"/>
			<v:textRect cx="113.386" cy="1591.6" width="226.78" height="345.827"/>
			<rect x="0" y="1418.68" width="226.772" height="345.827" class="st1"/>
			<text x="45.88" y="1600.6" class="st2" v:langID="2052"><v:paragraph v:horizAlign="1"/><v:tabList/>exe_stage</text>		</g>
		<g id="shape5-10" v:mID="5" v:groupContext="shape" transform="translate(1611.82,-1044.92)">
			<title>工作表.5</title>
			<desc>mem_stage</desc>
			<v:textBlock v:margins="rect(4,4,4,4)" v:tabSpace="42.5197"/>
			<v:textRect cx="113.386" cy="1591.6" width="226.78" height="345.827"/>
			<rect x="0" y="1418.68" width="226.772" height="345.827" class="st1"/>
			<text x="45.88" y="1600.6" class="st2" v:langID="2052"><v:paragraph v:horizAlign="1"/><v:tabList/>mem_stage</text>		</g>
		<g id="shape6-13" v:mID="6" v:groupContext="shape" transform="translate(1611.82,-503.503)">
			<title>工作表.6</title>
			<desc>wb_stage</desc>
			<v:textBlock v:margins="rect(4,4,4,4)" v:tabSpace="42.5197"/>
			<v:textRect cx="113.386" cy="1591.6" width="226.78" height="345.827"/>
			<rect x="0" y="1418.68" width="226.772" height="345.827" class="st1"/>
			<text x="53.39" y="1600.6" class="st2" v:langID="2052"><v:paragraph v:horizAlign="1"/><v:tabList/>wb_stage</text>		</g>
		<g id="shape7-16" v:mID="7" v:groupContext="shape" transform="translate(585.272,-503.503)">
			<title>工作表.7</title>
			<desc>regfile</desc>
			<v:textBlock v:margins="rect(4,4,4,4)" v:tabSpace="42.5197"/>
			<v:textRect cx="113.386" cy="1591.6" width="226.78" height="345.827"/>
			<rect x="0" y="1418.68" width="226.772" height="345.827" class="st1"/>
			<text x="60.89" y="1600.6" class="st2" v:langID="2052"><v:paragraph v:horizAlign="1"/><v:tabList/>regfile</text>		</g>
		<g id="shape8-19" v:mID="8" v:groupContext="shape" transform="translate(1004.39,-503.503)">
			<title>工作表.8</title>
			<desc>regfile_csr</desc>
			<v:textBlock v:margins="rect(4,4,4,4)" v:tabSpace="42.5197"/>
			<v:textRect cx="113.386" cy="1591.6" width="226.78" height="345.827"/>
			<rect x="0" y="1418.68" width="226.772" height="345.827" class="st1"/>
			<text x="30.88" y="1600.6" class="st2" v:langID="2052"><v:paragraph v:horizAlign="1"/><v:tabList/>regfile_csr</text>		</g>
		<g id="shape9-22" v:mID="9" v:groupContext="shape" transform="translate(173.236,-285.235)">
			<title>工作表.9</title>
			<rect x="0" y="304.735" width="2026.77" height="1459.77" class="st3"/>
		</g>
		<g id="shape11-24" v:mID="11" v:groupContext="shape" v:layerMember="3" transform="translate(605.52,-1125.18)">
			<title>动态连接线.11</title>
			<desc>valid</desc>
			<v:textBlock v:margins="rect(4,4,4,4)" v:tabSpace="42.5197"/>
			<v:textRect cx="92.126" cy="1757.42" width="150" height="44.0037"/>
			<path d="M0 1757.42 L89.76 1757.42 A2.3622 2.3622 0 0 1 94.49 1757.42 L184.25 1757.42" class="st4"/>
			<rect v:rectContext="textBkgnd" x="54.6256" y="1739.42" width="75.0009" height="36" class="st6"/>
			<text x="54.63" y="1766.42" class="st2" v:langID="2052"><v:paragraph v:horizAlign="1"/><v:tabList/>valid</text>		</g>
		<g id="shape13-32" v:mID="13" v:groupContext="shape" v:layerMember="3" transform="translate(605.52,-1298.09)">
			<title>动态连接线.13</title>
			<desc>ready</desc>
			<v:textBlock v:margins="rect(4,4,4,4)" v:tabSpace="42.5197"/>
			<v:textRect cx="92.126" cy="1757.42" width="150" height="44.0037"/>
			<path d="M0 1757.42 L89.76 1757.42 A2.3622 2.3622 0 0 1 94.49 1757.42 L184.25 1757.42" class="st7"/>
			<rect v:rectContext="textBkgnd" x="54.6256" y="1739.42" width="75.0009" height="36" class="st6"/>
			<text x="54.63" y="1766.42" class="st2" v:langID="2052"><v:paragraph v:horizAlign="1"/><v:tabList/>ready</text>		</g>
		<g id="shape24-40" v:mID="24" v:groupContext="shape" v:layerMember="3" transform="translate(1016.54,-1125.18)">
			<title>动态连接线</title>
			<desc>ready</desc>
			<v:textBlock v:margins="rect(4,4,4,4)" v:tabSpace="42.5197"/>
			<v:textRect cx="92.126" cy="1758.29" width="150" height="44.0037"/>
			<path d="M0 1757.42 L118.11 1757.42 A2.3622 2.3622 0 0 1 122.83 1757.42 L184.25 1757.42" class="st7"/>
			<rect v:rectContext="textBkgnd" x="54.6256" y="1740.29" width="75.0009" height="36" class="st6"/>
			<text x="54.63" y="1767.29" class="st2" v:langID="2052"><v:paragraph v:horizAlign="1"/><v:tabList/>ready</text>		</g>
		<g id="shape25-47" v:mID="25" v:groupContext="shape" v:layerMember="3" transform="translate(1200.8,-1271.91)">
			<title>动态连接线.25</title>
			<desc>valid</desc>
			<v:textBlock v:margins="rect(4,4,4,4)" v:tabSpace="42.5197"/>
			<v:textRect cx="-92.126" cy="1758.24" width="150" height="44.0037"/>
			<path d="M0 1757.42 L-61.42 1757.42 A2.3622 2.3622 -180 0 0 -66.14 1757.42 L-184.25 1757.42" class="st7"/>
			<rect v:rectContext="textBkgnd" x="-129.626" y="1740.24" width="75.0009" height="36" class="st6"/>
			<text x="-129.63" y="1767.24" class="st2" v:langID="2052"><v:paragraph v:horizAlign="1"/><v:tabList/>valid</text>		</g>
		<g id="shape26-54" v:mID="26" v:groupContext="shape" v:layerMember="3" transform="translate(1427.57,-1320.37)">
			<title>动态连接线.26</title>
			<desc>ready</desc>
			<v:textBlock v:margins="rect(4,4,4,4)" v:tabSpace="42.5197"/>
			<v:textRect cx="92.126" cy="1759.28" width="150" height="44.0037"/>
			<path d="M0 1757.42 L184.25 1757.42" class="st7"/>
			<rect v:rectContext="textBkgnd" x="54.6256" y="1741.29" width="75.0009" height="36" class="st6"/>
			<text x="54.63" y="1768.29" class="st2" v:langID="2052"><v:paragraph v:horizAlign="1"/><v:tabList/>ready</text>		</g>
		<g id="shape27-61" v:mID="27" v:groupContext="shape" v:layerMember="3" transform="translate(1427.57,-1146.35)">
			<title>动态连接线.27</title>
			<desc>valid</desc>
			<v:textBlock v:margins="rect(4,4,4,4)" v:tabSpace="42.5197"/>
			<v:textRect cx="92.126" cy="1757.42" width="150" height="44.0037"/>
			<path d="M0 1757.42 L184.25 1757.42" class="st4"/>
			<rect v:rectContext="textBkgnd" x="54.6256" y="1739.42" width="75.0009" height="36" class="st6"/>
			<text x="54.63" y="1766.42" class="st2" v:langID="2052"><v:paragraph v:horizAlign="1"/><v:tabList/>valid</text>		</g>
		<g id="shape28-68" v:mID="28" v:groupContext="shape" v:layerMember="3" transform="translate(1691.89,-1044.92)">
			<title>动态连接线.28</title>
			<desc>valid</desc>
			<v:textBlock v:margins="rect(4,4,4,4)" v:tabSpace="42.5197"/>
			<v:textRect cx="7.08661" cy="1862.31" width="150" height="44.0037"/>
			<path d="M7.09 1764.51 L7.09 1960.1" class="st8"/>
			<rect v:rectContext="textBkgnd" x="-30.4138" y="1844.31" width="75.0009" height="36" class="st6"/>
			<text x="-30.41" y="1871.31" class="st2" v:langID="2052"><v:paragraph v:horizAlign="1"/><v:tabList/>valid</text>		</g>
		<g id="shape29-76" v:mID="29" v:groupContext="shape" v:layerMember="3" transform="translate(1795.91,-1044.92)">
			<title>动态连接线.29</title>
			<desc>ready</desc>
			<v:textBlock v:margins="rect(4,4,4,4)" v:tabSpace="42.5197"/>
			<v:textRect cx="7.08661" cy="1862.31" width="150" height="44.0037"/>
			<path d="M7.09 1764.51 L7.09 1960.1" class="st10"/>
			<rect v:rectContext="textBkgnd" x="-30.4138" y="1844.31" width="75.0009" height="36" class="st6"/>
			<text x="-30.41" y="1871.31" class="st2" v:langID="2052"><v:paragraph v:horizAlign="1"/><v:tabList/>ready</text>		</g>
		<g id="shape30-84" v:mID="30" v:groupContext="shape" transform="translate(2688.93,1479.27) rotate(90)">
			<title>工作表.30</title>
			<path d="M0 1764.51 L255.19 1764.51" class="st11"/>
		</g>
		<g id="shape31-93" v:mID="31" v:groupContext="shape" transform="translate(3114.12,1479.27) rotate(90)">
			<title>工作表.31</title>
			<path d="M0 1764.51 L255.19 1764.51" class="st11"/>
		</g>
		<g id="shape32-100" v:mID="32" v:groupContext="shape" v:layerMember="3" transform="translate(492.134,-1044.92)">
			<title>动态连接线.32</title>
			<desc>irom_bus</desc>
			<v:textBlock v:margins="rect(4,4,4,4)" v:tabSpace="42.5197"/>
			<v:textRect cx="0" cy="2360.49" width="150" height="44.0037"/>
			<path d="M0 1764.51 L0 2444.66 L432.28 2444.66 L432.28 2524.19" class="st13"/>
			<rect v:rectContext="textBkgnd" x="-60.0006" y="2342.49" width="120.001" height="36" class="st6"/>
			<text x="-60" y="2369.49" class="st2" v:langID="2052"><v:paragraph v:horizAlign="1"/><v:tabList/>irom_bus</text>		</g>
		<g id="shape34-111" v:mID="34" v:groupContext="shape" transform="translate(-414.896,1479.27) rotate(-90)">
			<title>工作表.34</title>
			<desc>dram_bus</desc>
			<v:textBlock v:margins="rect(4,4,4,4)" v:tabSpace="42.5197"/>
			<v:textRect cx="77.9188" cy="1764.51" width="155.84" height="0" transform="rotate(90)"/>
			<path d="M0 1764.51 L155.84 1764.51" class="st15"/>
			<rect v:rectContext="textBkgnd" x="1704.51" y="-95.9188" width="120.001" height="36" transform="rotate(90)" class="st6"/>
			<text x="1704.51" y="-68.92" transform="rotate(90)" class="st2" v:langID="2052"><v:paragraph v:horizAlign="1"/><v:tabList/>dram_bus</text>		</g>
		<g id="shape35-116" v:mID="35" v:groupContext="shape" v:layerMember="3" transform="translate(1342.53,-441.073)">
			<title>动态连接线.35</title>
			<desc>dram_en dram_wen dram_addr dram_wdata</desc>
			<v:textBlock v:margins="rect(4,4,4,4)" v:tabSpace="42.5197"/>
			<v:textRect cx="7.08661" cy="1462.59" width="173.01" height="152.004"/>
			<path d="M7.09 1764.51 L7.09 1160.66" class="st16"/>
			<rect v:rectContext="textBkgnd" x="-67.9143" y="1390.59" width="150.002" height="144" class="st6"/>
			<text x="-45.41" y="1417.59" class="st2" v:langID="2052"><v:paragraph v:horizAlign="1"/><v:tabList/>dram_en<v:newlineChar/><tspan
						x="-52.91" dy="1.2em" class="st17">dram_wen<v:newlineChar/></tspan><tspan x="-60.41" dy="1.2em"
						class="st17">dram_addr<v:newlineChar/></tspan><tspan x="-67.91" dy="1.2em" class="st17">dram_wdata</tspan></text>		</g>
		<g id="shape36-126" v:mID="36" v:groupContext="shape" v:layerMember="3" transform="translate(1611.82,-1087.26)">
			<title>动态连接线.36</title>
			<desc>dram_rdata</desc>
			<v:textBlock v:margins="rect(4,4,4,4)" v:tabSpace="42.5197"/>
			<v:textRect cx="-162.992" cy="2410.7" width="173.01" height="44.0037"/>
			<path d="M0 1764.51 L-63.78 1764.51 L-63.78 2410.7 L-262.2 2410.7" class="st16"/>
			<rect v:rectContext="textBkgnd" x="-237.993" y="2392.7" width="150.002" height="36" class="st6"/>
			<text x="-237.99" y="2419.7" class="st2" v:langID="2052"><v:paragraph v:horizAlign="1"/><v:tabList/>dram_rdata</text>		</g>
		<g id="shape37-133" v:mID="37" v:groupContext="shape" v:layerMember="3" transform="translate(1314.18,-1383.66)">
			<title>动态连接线.37</title>
			<desc>br_jmp_bus</desc>
			<v:textBlock v:margins="rect(4,4,4,4)" v:tabSpace="42.5197"/>
			<v:textRect cx="-411.024" cy="1622.27" width="173.01" height="44.0037"/>
			<path d="M0 1757.42 L0 1622.27 L-174.8 1622.27 A2.3622 2.3622 -180 0 0 -179.53 1622.27 L-408.66 1622.27 A2.3622 2.3622
						 -180 0 0 -413.39 1622.27 L-422.83 1622.27 A2.3622 2.3622 -180 0 0 -427.56 1622.27 L-614.17 1622.27 A2.3622
						 2.3622 -180 0 0 -618.9 1622.27 L-822.05 1622.27 L-822.05 1757.42" class="st18"/>
			<rect v:rectContext="textBkgnd" x="-486.025" y="1604.28" width="150.002" height="36" class="st6"/>
			<text x="-486.02" y="1631.28" class="st2" v:langID="2052"><v:paragraph v:horizAlign="1"/><v:tabList/>br_jmp_bus</text>		</g>
		<g id="shape38-141" v:mID="38" v:groupContext="shape" v:layerMember="3" transform="translate(1106.28,-1525.9)">
			<title>动态连接线.38</title>
			<desc>br_jmp_valid</desc>
			<v:textBlock v:margins="rect(4,4,4,4)" v:tabSpace="42.5197"/>
			<v:textRect cx="-1.41732" cy="1848.47" width="203.01" height="44.0037"/>
			<path d="M0 1764.51 L0 1948.47 L-89.74 1948.47" class="st18"/>
			<rect v:rectContext="textBkgnd" x="-91.4184" y="1830.47" width="180.002" height="36" class="st6"/>
			<text x="-91.42" y="1857.47" class="st2" v:langID="2052"><v:paragraph v:horizAlign="1"/><v:tabList/>br_jmp_valid</text>		</g>
		<g id="shape39-148" v:mID="39" v:groupContext="shape" v:layerMember="3" transform="translate(605.52,-1170.62)">
			<title>动态连接线.39</title>
			<desc>if_id_data_bus</desc>
			<v:textBlock v:margins="rect(4,4,4,4)" v:tabSpace="42.5197"/>
			<v:textRect cx="92.126" cy="1757.42" width="143.01" height="29.6036"/>
			<path d="M0 1757.42 L89.76 1757.42 A2.3622 2.3622 0 0 1 94.49 1757.42 L175.73 1757.42" class="st20"/>
			<rect v:rectContext="textBkgnd" x="29.126" y="1746.62" width="126" height="21.5999" class="st6"/>
			<text x="29.13" y="1762.82" class="st22" v:langID="2052"><v:paragraph v:horizAlign="1"/><v:tabList/>if_id_data_bus</text>		</g>
		<g id="shape40-156" v:mID="40" v:groupContext="shape" v:layerMember="3" transform="translate(1016.54,-1170.62)">
			<title>动态连接线.40</title>
			<desc>id_exe_data_bus</desc>
			<v:textBlock v:margins="rect(4,4,4,4)" v:tabSpace="42.5197"/>
			<v:textRect cx="92.126" cy="1757.42" width="152.01" height="29.6036"/>
			<path d="M0 1757.42 L118.11 1757.42 A2.3622 2.3622 0 0 1 122.83 1757.42 L175.73 1757.42" class="st20"/>
			<rect v:rectContext="textBkgnd" x="24.626" y="1746.62" width="135" height="21.5999" class="st6"/>
			<text x="24.63" y="1762.82" class="st22" v:langID="2052"><v:paragraph v:horizAlign="1"/><v:tabList/>id_exe_data_bus</text>		</g>
		<g id="shape41-163" v:mID="41" v:groupContext="shape" v:layerMember="3" transform="translate(1427.57,-1253.53)">
			<title>动态连接线.41</title>
			<desc>exe_mem_data_bus</desc>
			<v:textBlock v:margins="rect(4,4,4,4)" v:tabSpace="42.5197"/>
			<v:textRect cx="92.126" cy="1757.42" width="161.01" height="29.6036"/>
			<path d="M0 1757.42 L175.73 1757.42" class="st20"/>
			<rect v:rectContext="textBkgnd" x="20.126" y="1746.62" width="144" height="21.5999" class="st6"/>
			<text x="20.13" y="1762.82" class="st22" v:langID="2052"><v:paragraph v:horizAlign="1"/><v:tabList/>exe_mem_data_bus</text>		</g>
		<g id="shape42-170" v:mID="42" v:groupContext="shape" v:layerMember="3" transform="translate(1646.54,-1044.92)">
			<title>动态连接线.42</title>
			<desc>mem_wb_data_bus</desc>
			<v:textBlock v:margins="rect(4,4,4,4)" v:tabSpace="42.5197"/>
			<v:textRect cx="7.08661" cy="1862.31" width="152.01" height="29.6036" transform="rotate(-90)"/>
			<path d="M7.09 1764.51 L7.09 1951.58" class="st20"/>
			<rect v:rectContext="textBkgnd" x="-1929.81" y="-3.71314" width="135" height="21.5999" transform="rotate(-90)"
					class="st6"/>
			<text x="-1929.81" y="12.49" transform="rotate(-90)" class="st22" v:langID="2052"><v:paragraph v:horizAlign="1"/><v:tabList/>mem_wb_data_bus</text>		</g>
		<g id="shape46-177" v:mID="46" v:groupContext="shape" v:layerMember="3" transform="translate(1725.2,-1383.66)">
			<title>动态连接线.46</title>
			<desc>dest_addr_bus</desc>
			<v:textBlock v:margins="rect(4,4,4,4)" v:tabSpace="42.5197"/>
			<v:textRect cx="-203.347" cy="1622.27" width="218.01" height="44.0037"/>
			<path d="M0 1757.42 L0 1593.93 L-391.37 1593.93 A2.3622 2.3622 -180 0 0 -396.09 1593.93 L-585.83 1593.93 A2.3622 2.3622
						 -180 0 0 -590.55 1593.93 L-822.05 1593.93 L-822.05 1757.42" class="st23"/>
			<rect v:rectContext="textBkgnd" x="-300.848" y="1604.28" width="195.002" height="36" class="st6"/>
			<text x="-300.85" y="1631.28" class="st2" v:langID="2052"><v:paragraph v:horizAlign="1"/><v:tabList/>dest_addr_bus</text>		</g>
		<g id="shape47-185" v:mID="47" v:groupContext="shape" v:layerMember="3" transform="translate(1332.48,-1390.75)">
			<title>动态连接线.47</title>
			<path d="M7.09 1764.51 L7.09 1601.02" class="st23"/>
		</g>
		<g id="shape48-190" v:mID="48" v:groupContext="shape" v:layerMember="3" transform="translate(1838.59,-676.416)">
			<title>动态连接线.48</title>
			<path d="M0 1764.51 L59.3 1764.51 L59.3 921.07 L-50.08 921.07 A2.3622 2.3622 -180 0 0 -54.8 921.07 L-113.39 921.07"
					class="st23"/>
		</g>
		<g id="shape49-195" v:mID="49" v:groupContext="shape" v:layerMember="3" transform="translate(924.417,-1044.92)">
			<title>动态连接线.49</title>
			<desc>csr_rbus</desc>
			<v:textBlock v:margins="rect(4,4,4,4)" v:tabSpace="42.5197"/>
			<v:textRect cx="0" cy="1988.75" width="150" height="44.0037" transform="rotate(-90)"/>
			<path d="M0 1764.51 L0 2133.01 L79.98 2133.01" class="st25"/>
			<rect v:rectContext="textBkgnd" x="-2048.75" y="-17.9998" width="120.001" height="36" transform="rotate(-90)"
					class="st6"/>
			<text x="-2048.75" y="9" transform="rotate(-90)" class="st2" v:langID="2052"><v:paragraph v:horizAlign="1"/><v:tabList/>csr_rbus</text>		</g>
		<g id="shape50-206" v:mID="50" v:groupContext="shape" v:layerMember="3" transform="translate(881.898,-1044.92)">
			<title>动态连接线.50</title>
			<desc>regfile_rbus</desc>
			<v:textBlock v:margins="rect(4,4,4,4)" v:tabSpace="42.5197"/>
			<v:textRect cx="0" cy="1983.69" width="203.01" height="44.0037" transform="rotate(-90)"/>
			<path d="M0 1764.51 L0 2133.01 L-69.85 2133.01" class="st25"/>
			<rect v:rectContext="textBkgnd" x="-2073.69" y="-17.9998" width="180.002" height="36" transform="rotate(-90)"
					class="st6"/>
			<text x="-2073.69" y="9" transform="rotate(-90)" class="st2" v:langID="2052"><v:paragraph v:horizAlign="1"/><v:tabList/>regfile_rbus</text>		</g>
		<g id="shape51-215" v:mID="51" v:groupContext="shape" v:layerMember="3" transform="translate(1725.2,-496.416)">
			<title>动态连接线.51</title>
			<desc>regfile_wbus</desc>
			<v:textBlock v:margins="rect(4,4,4,4)" v:tabSpace="42.5197"/>
			<v:textRect cx="-513.273" cy="1797.64" width="203.01" height="44.0037"/>
			<path d="M0 1757.42 L0 1797.64 L-174.8 1797.64 A2.3622 2.3622 -180 0 0 -179.53 1797.64 L-373.23 1797.64 A2.3622 2.3622
						 -180 1 0 -377.95 1797.64 L-1026.55 1797.64 L-1026.55 1757.42" class="st26"/>
			<rect v:rectContext="textBkgnd" x="-603.274" y="1779.64" width="180.002" height="36" class="st6"/>
			<text x="-603.27" y="1806.64" class="st2" v:langID="2052"><v:paragraph v:horizAlign="1"/><v:tabList/>regfile_wbus</text>		</g>
		<g id="shape52-222" v:mID="52" v:groupContext="shape" v:layerMember="3" transform="translate(1611.82,-1066.09)">
			<title>动态连接线.52</title>
			<desc>csr_wbus exception_bus</desc>
			<v:textBlock v:margins="rect(4,4,4,4)" v:tabSpace="42.5197"/>
			<v:textRect cx="-148.819" cy="2047.66" width="134.01" height="51.2036" transform="rotate(-90)"/>
			<path d="M0 1764.51 L-58.09 1764.51 A5.66929 5.66929 0 0 1 -62.11 1762.84 A2.3622 2.3622 -180 0 0 -65.45 1762.84 A5.66929
						 5.66929 0 0 1 -69.47 1764.51 L-143.15 1764.51 A5.66929 5.66929 -180 0 0 -148.82 1770.18 L-148.82 2242.13
						 A5.66929 5.66929 0 0 1 -154.49 2247.8 L-256.52 2247.8 A5.66929 5.66929 0 0 1 -260.53 2246.13 A2.3622 2.3622
						 -180 0 0 -263.88 2246.13 A5.66929 5.66929 0 0 1 -267.89 2247.8 L-380.65 2247.8" class="st26"/>
			<rect v:rectContext="textBkgnd" x="-2106.16" y="-170.419" width="117" height="43.1999" transform="rotate(-90)"
					class="st6"/>
			<text x="-2083.66" y="-154.22" transform="rotate(-90)" class="st22" v:langID="2052"><v:paragraph v:horizAlign="1"/><v:tabList/>csr_wbus<v:newlineChar/><tspan
						x="-2106.16" dy="1.2em" class="st17">exception_bus</tspan></text>		</g>
		<g id="shape53-230" v:mID="53" v:groupContext="shape" v:layerMember="3" transform="translate(1117.78,-849.33)">
			<title>动态连接线.53</title>
			<desc>exception_jmp_bus</desc>
			<v:textBlock v:margins="rect(4,4,4,4)" v:tabSpace="42.5197"/>
			<v:textRect cx="-408.796" cy="1662.53" width="278.01" height="44.0037"/>
			<path d="M0 1764.51 L0 1662.53 L-191 1662.53 A2.3622 2.3622 -180 1 0 -195.73 1662.53 L-233.52 1662.53 A2.3622 2.3622
						 -180 0 0 -238.25 1662.53 L-417.77 1662.53 A2.3622 2.3622 -180 0 0 -422.5 1662.53 L-568.95 1662.53 L-568.95
						 1568.92" class="st27"/>
			<rect v:rectContext="textBkgnd" x="-536.298" y="1644.53" width="255.003" height="36" class="st6"/>
			<text x="-536.3" y="1671.53" class="st2" v:langID="2052"><v:paragraph v:horizAlign="1"/><v:tabList/>exception_jmp_bus</text>		</g>
		<g id="shape54-237" v:mID="54" v:groupContext="shape" v:layerMember="3" transform="translate(972.606,-951.309)">
			<title>动态连接线.54</title>
			<path d="M7.09 1764.51 L7.09 1670.9" class="st27"/>
		</g>
		<g id="shape55-242" v:mID="55" v:groupContext="shape" v:layerMember="3" transform="translate(1117.78,-951.309)">
			<title>动态连接线.55</title>
			<path d="M0 1764.51 L16.87 1764.51 A2.3622 2.3622 0 0 1 21.6 1764.51 L157.42 1764.51 L157.42 1670.9" class="st27"/>
		</g>
		<g id="shape56-247" v:mID="56" v:groupContext="shape" transform="translate(3404.68,1479.27) rotate(90)">
			<title>工作表.56</title>
			<path d="M0 1764.51 L255.19 1764.51" class="st28"/>
		</g>
		<g id="shape57-252" v:mID="57" v:groupContext="shape" v:layerMember="3" transform="translate(1640.17,-285.235)">
			<title>动态连接线.57</title>
			<desc>plic_valid</desc>
			<v:textBlock v:margins="rect(4,4,4,4)" v:tabSpace="42.5197"/>
			<v:textRect cx="407.986" cy="1474.98" width="173.01" height="44.0037"/>
			<path d="M0 1764.51 L0 1665.37 L407.99 1665.37 L407.99 1070.09 L388.08 1070.09 A2.3622 2.3622 -180 0 0 383.35 1070.09
						 L260.09 1070.09 A2.3622 2.3622 -180 0 0 255.37 1070.09 L180.63 1070.09 L180.63 1004.82" class="st29"/>
			<rect v:rectContext="textBkgnd" x="332.986" y="1456.98" width="150.002" height="36" class="st6"/>
			<text x="332.99" y="1483.98" class="st2" v:langID="2052"><v:paragraph v:horizAlign="1"/><v:tabList/>plic_valid</text>		</g>
		<g id="shape58-260" v:mID="58" v:groupContext="shape" transform="translate(23,-1664.22)">
			<title>工作表.58</title>
			<path d="M0 1764.51 L2002.88 1764.51" class="st31"/>
		</g>
		<g id="shape59-263" v:mID="59" v:groupContext="shape" v:layerMember="3" transform="translate(413.331,-1662.81)">
			<title>动态连接线.59</title>
			<path d="M7.09 1764.51 L7.09 2036.57" class="st32"/>
		</g>
		<g id="shape60-269" v:mID="60" v:groupContext="shape" v:layerMember="3" transform="translate(690.559,-1664.22)">
			<title>动态连接线.60</title>
			<path d="M7.09 1764.51 L7.09 2579.4" class="st32"/>
		</g>
		<g id="shape61-274" v:mID="61" v:groupContext="shape" v:layerMember="3" transform="translate(881.898,-1664.22)">
			<title>动态连接线.61</title>
			<path d="M7.09 1764.51 L7.09 2037.99" class="st32"/>
		</g>
		<g id="shape62-279" v:mID="62" v:groupContext="shape" v:layerMember="3" transform="translate(1129.93,-1664.22)">
			<title>动态连接线.62</title>
			<path d="M7.09 1764.51 L7.09 2579.4" class="st32"/>
		</g>
		<g id="shape63-284" v:mID="63" v:groupContext="shape" v:layerMember="3" transform="translate(1324.39,-1664.22)">
			<title>动态连接线.63</title>
			<path d="M7.09 1764.51 L7.09 2037.99" class="st32"/>
		</g>
		<g id="shape64-289" v:mID="64" v:groupContext="shape" v:layerMember="3" transform="translate(1779.06,-1664.22)">
			<title>动态连接线.64</title>
			<path d="M7.09 1764.51 L7.09 2037.99" class="st32"/>
		</g>
		<g id="shape65-294" v:mID="65" v:groupContext="shape" v:layerMember="3" transform="translate(2025.88,-1664.22)">
			<title>动态连接线.65</title>
			<path d="M0 1764.51 L0 2665.86 L-125.62 2665.86 A2.3622 2.3622 -180 0 0 -130.35 2665.86 L-187.29 2665.86" class="st32"/>
		</g>
		<g id="shape66-299" v:mID="66" v:groupContext="shape" transform="translate(191.661,-1627.37)">
			<title>工作表.66</title>
			<desc>clk rst_n</desc>
			<v:textBlock v:margins="rect(4,4,4,4)" v:tabSpace="42.5197"/>
			<v:textRect cx="102.047" cy="1730.35" width="204.1" height="68.315"/>
			<rect x="0" y="1696.19" width="204.094" height="68.315" class="st34"/>
			<text x="79.55" y="1721.35" class="st2" v:langID="2052"><v:paragraph v:horizAlign="1"/><v:tabList/>clk<v:newlineChar/><tspan
						x="64.55" dy="1.2em" class="st17">rst_n</tspan></text>		</g>
		<g id="group70-303" transform="translate(178.583,-231.024)" v:mID="70" v:groupContext="group">
			<title>工作表.70</title>
			<g id="shape68-304" v:mID="68" v:groupContext="shape" transform="translate(-3.19744E-14,-16.4409)">
				<title>工作表.68</title>
				<path d="M0 1764.51 L142.18 1764.51" class="st35"/>
			</g>
			<g id="shape69-310" v:mID="69" v:groupContext="shape" transform="translate(147.402,2.27374E-13)">
				<title>工作表.69</title>
				<desc>级间握手信号</desc>
				<v:textBlock v:margins="rect(4,4,4,4)" v:tabSpace="42.5197"/>
				<v:textRect cx="49.6063" cy="1748.07" width="99.22" height="32.8819"/>
				<rect x="0" y="1731.63" width="99.2126" height="32.8819" class="st34"/>
				<text x="13.61" y="1751.67" class="st37" v:langID="2052"><v:paragraph v:horizAlign="1"/><v:tabList/>级间握手信号</text>			</g>
		</g>
		<g id="group71-313" transform="translate(178.583,-182.268)" v:mID="71" v:groupContext="group">
			<title>工作表.71</title>
			<g id="shape72-314" v:mID="72" v:groupContext="shape" transform="translate(-3.19744E-14,-16.4409)">
				<title>工作表.72</title>
				<path d="M0 1764.51 L142.18 1764.51" class="st38"/>
			</g>
			<g id="shape73-320" v:mID="73" v:groupContext="shape" transform="translate(147.402,2.27374E-13)">
				<title>工作表.73</title>
				<desc>级间数据信号</desc>
				<v:textBlock v:margins="rect(4,4,4,4)" v:tabSpace="42.5197"/>
				<v:textRect cx="49.6063" cy="1748.07" width="99.22" height="32.8819"/>
				<rect x="0" y="1731.63" width="99.2126" height="32.8819" class="st34"/>
				<text x="13.61" y="1751.67" class="st37" v:langID="2052"><v:paragraph v:horizAlign="1"/><v:tabList/>级间数据信号</text>			</g>
		</g>
		<g id="group74-323" transform="translate(178.583,-125.575)" v:mID="74" v:groupContext="group">
			<title>工作表.74</title>
			<g id="shape75-324" v:mID="75" v:groupContext="shape" transform="translate(-3.19744E-14,-16.4409)">
				<title>工作表.75</title>
				<path d="M0 1764.51 L142.18 1764.51" class="st40"/>
			</g>
			<g id="shape76-330" v:mID="76" v:groupContext="shape" transform="translate(147.402,2.27374E-13)">
				<title>工作表.76</title>
				<desc>分支跳转信号</desc>
				<v:textBlock v:margins="rect(4,4,4,4)" v:tabSpace="42.5197"/>
				<v:textRect cx="49.6063" cy="1748.07" width="99.22" height="32.8819"/>
				<rect x="0" y="1731.63" width="99.2126" height="32.8819" class="st34"/>
				<text x="13.61" y="1751.67" class="st37" v:langID="2052"><v:paragraph v:horizAlign="1"/><v:tabList/>分支跳转信号</text>			</g>
		</g>
		<g id="group77-333" transform="translate(178.583,-68.8819)" v:mID="77" v:groupContext="group">
			<title>工作表.77</title>
			<g id="shape78-334" v:mID="78" v:groupContext="shape" transform="translate(-3.19744E-14,-16.4409)">
				<title>工作表.78</title>
				<path d="M0 1764.51 L142.18 1764.51" class="st42"/>
			</g>
			<g id="shape79-339" v:mID="79" v:groupContext="shape" transform="translate(147.402,2.27374E-13)">
				<title>工作表.79</title>
				<desc>异常跳转信号</desc>
				<v:textBlock v:margins="rect(4,4,4,4)" v:tabSpace="42.5197"/>
				<v:textRect cx="49.6063" cy="1748.07" width="99.22" height="32.8819"/>
				<rect x="0" y="1731.63" width="99.2126" height="32.8819" class="st34"/>
				<text x="13.61" y="1751.67" class="st37" v:langID="2052"><v:paragraph v:horizAlign="1"/><v:tabList/>异常跳转信号</text>			</g>
		</g>
		<g id="group80-342" transform="translate(476.22,-231.024)" v:mID="80" v:groupContext="group">
			<title>工作表.80</title>
			<g id="shape81-343" v:mID="81" v:groupContext="shape" transform="translate(-3.19744E-14,-16.4409)">
				<title>工作表.81</title>
				<path d="M0 1764.51 L142.18 1764.51" class="st43"/>
			</g>
			<g id="shape82-348" v:mID="82" v:groupContext="shape" transform="translate(147.402,2.27374E-13)">
				<title>工作表.82</title>
				<desc>地址前递信号</desc>
				<v:textBlock v:margins="rect(4,4,4,4)" v:tabSpace="42.5197"/>
				<v:textRect cx="49.6063" cy="1748.07" width="99.22" height="32.8819"/>
				<rect x="0" y="1731.63" width="99.2126" height="32.8819" class="st34"/>
				<text x="13.61" y="1751.67" class="st37" v:langID="2052"><v:paragraph v:horizAlign="1"/><v:tabList/>地址前递信号</text>			</g>
		</g>
		<g id="group83-351" transform="translate(476.22,-182.268)" v:mID="83" v:groupContext="group">
			<title>工作表.83</title>
			<g id="shape84-352" v:mID="84" v:groupContext="shape" transform="translate(-3.19744E-14,-16.4409)">
				<title>工作表.84</title>
				<path d="M0 1764.51 L142.18 1764.51" class="st44"/>
			</g>
			<g id="shape85-358" v:mID="85" v:groupContext="shape" transform="translate(147.402,2.27374E-13)">
				<title>工作表.85</title>
				<desc>外界交互信号</desc>
				<v:textBlock v:margins="rect(4,4,4,4)" v:tabSpace="42.5197"/>
				<v:textRect cx="49.6063" cy="1748.07" width="99.22" height="32.8819"/>
				<rect x="0" y="1731.63" width="99.2126" height="32.8819" class="st34"/>
				<text x="13.61" y="1751.67" class="st37" v:langID="2052"><v:paragraph v:horizAlign="1"/><v:tabList/>外界交互信号</text>			</g>
		</g>
	</g>
</svg>
